<?xml version="1.0" encoding="utf-8"?>
<!-- Generator: Adobe Illustrator 14.0.0, SVG Export Plug-In . SVG Version: 6.00 Build 43363)  -->
<!DOCTYPE svg PUBLIC "-//W3C//DTD SVG 1.1//EN" "http://www.w3.org/Graphics/SVG/1.1/DTD/svg11.dtd">
<svg version="1.1" id="Layer_1" xmlns="http://www.w3.org/2000/svg" xmlns:xlink="http://www.w3.org/1999/xlink" x="0px" y="0px"
	 width="1980px" height="1064px" viewBox="0 0 1980 1064" enable-background="new 0 0 1980 1064" xml:space="preserve">
<rect x="1471" y="479" fill="#FFFFFF" width="166.225" height="16"/>
<rect x="1642.388" y="479" fill="#FFFFFF" width="166.225" height="16"/>
<rect x="1813.775" y="479" fill="#FFFFFF" width="166.226" height="16"/>
<rect x="524" y="618" fill="#FFFFFF" width="215" height="2"/>
<rect x="764" y="618" fill="#FFFFFF" width="215" height="2"/>
<rect x="1005" y="618" fill="#FFFFFF" width="215" height="2"/>
<rect x="1243" y="618" fill="#FFFFFF" width="215" height="2"/>
<rect x="518.5" y="414.95" fill="none" width="987" height="169.285"/>
<g enable-background="new    ">
	<path fill="#CBD4DD" d="M593.47,548.277v-9.063c-0.944,0.942-1.7,2.075-2.646,3.021c-3.588,3.399-11.331,8.876-23.604,8.876
		c-3.21,0-10.009-0.378-17.563-3.966c-10.196-4.722-24.359-16.996-24.359-44.189c0-28.893,15.674-43.812,26.438-48.722
		c3.021-1.321,8.498-3.21,16.429-3.21c3.211,0,10.011,0.188,17.187,4.154c1.322,0.756,2.455,1.32,4.721,3.021
		c1.7,1.322,3.021,3.021,3.399,3.399v-46.646h22.472v133.323H593.47V548.277z M589.127,481.993c-1.135-2.077-3.211-4.53-4.91-5.854
		c-3.777-3.021-7.933-4.155-12.652-4.155c-1.889,0-6.798,0.378-11.52,3.399c-10.766,6.985-11.144,22.284-11.144,25.114
		c0,13.977,5.854,30.026,22.474,30.026c6.043,0,10.764-1.889,14.729-6.421c5.854-6.421,7.365-14.163,7.176-22.661
		C593.281,495.401,592.337,487.659,589.127,481.993z"/>
</g>
<g enable-background="new    ">
	<path fill="#CBD4DD" d="M706.401,536.947c-5.288,4.909-17.938,14.163-37.391,14.163c-6.043,0-20.961-0.756-33.803-12.653
		c-10.766-10.195-14.729-23.228-14.729-37.955c0-7.934,1.133-15.485,4.154-22.661c4.152-9.442,15.861-26.815,43.245-26.815
		c21.148,0,32.292,10.953,37.2,18.129c4.345,6.609,8.688,18.129,9.255,36.446H644.46c0.377,2.833,1.32,8.687,6.043,14.353
		c3.21,3.968,8.875,9.064,20.583,9.064s18.507-5.479,21.526-8.688c0.755-0.756,1.891-2.267,3.21-4.344l19.264,11.144
		C713.575,529.204,710.933,532.794,706.401,536.947z M687.517,481.238c-2.077-4.532-6.987-12.086-19.262-12.086
		c-4.91,0-7.556,0.944-9.442,1.699c-10.575,4.344-13.03,14.919-13.597,18.129h44.188
		C689.405,488.98,688.839,484.448,687.517,481.238z"/>
</g>
<g enable-background="new    ">
	<path fill="#CBD4DD" d="M801.392,531.659c-4.532,8.688-16.24,19.451-39.279,19.451c-17.751,0-30.401-6.043-36.258-9.632
		c-3.21-2.077-6.231-4.531-9.063-7.364l16.994-13.786c0.756,0.944,1.891,2.646,4.345,4.724c8.12,6.985,20.207,7.362,22.85,7.362
		c5.665,0,12.275-1.319,16.052-5.665c1.513-1.511,2.455-3.588,2.455-5.477c0-0.755-0.188-2.266-1.511-3.966
		c-2.455-3.398-5.479-3.588-12.464-5.101c-6.232-1.319-12.464-2.075-18.507-3.588c-4.154-1.133-26.062-6.421-26.062-26.813
		c0-7.176,3.021-12.464,4.343-14.541c4.723-7.365,15.863-16.24,36.26-16.24c7.363,0,26.438,1.133,40.602,17.563l-16.052,14.919
		c-1.889-3.967-4.344-6.231-5.854-7.556c-5.854-5.099-12.086-6.798-19.828-6.798c-0.942,0-7.363,0-11.52,2.832
		c-3.399,2.268-4.154,5.288-4.154,6.987c0.188,3.211,2.455,5.477,3.021,5.854c2.455,1.891,8.687,3.399,16.239,4.723
		c5.1,0.942,10.196,1.698,15.297,2.833c5.099,1.133,10.764,2.833,14.918,5.854c3.397,2.455,10.386,9.064,10.386,20.584
		C804.602,523.349,803.469,527.693,801.392,531.659z"/>
</g>
<g enable-background="new    ">
	<path fill="#CBD4DD" d="M808.948,439.128v-22.852h22.474v22.852H808.948z M808.948,548.277v-94.422h22.474v94.422H808.948z"/>
</g>
<g enable-background="new    ">
	<path fill="#CBD4DD" d="M921.877,565.464c-5.854,7.932-18.129,14.353-39.47,14.353c-21.148,0-31.536-5.854-37.391-14.164
		c-2.267-3.396-3.966-7.364-5.854-15.482l24.928,0.188c0.565,1.889,0.942,3.021,2.267,4.722c4.91,7.178,15.296,6.986,16.996,6.986
		c11.331,0,17.187-4.343,19.64-8.875c2.646-4.91,2.455-9.82,2.455-20.396c-10.574,9.44-23.794,10.009-28.515,10.009
		c-5.666,0-11.896-0.944-17.187-3.399c-10.008-4.343-23.604-15.674-23.604-41.545c0-3.021,0-11.896,3.21-20.206
		c6.421-16.43,21.717-26.627,39.468-26.627c3.21,0,12.275,0.378,20.019,6.043c3.397,2.455,5.854,5.665,6.608,6.798v-10.009h22.474
		v77.615C927.92,542.425,929.053,555.831,921.877,565.464z M904.504,487.469c-1.513-5.101-6.609-16.24-21.906-16.24
		c-3.21,0-10.764,0.566-16.807,7.176c-6.609,7.177-6.42,15.863-6.42,18.885c0,3.022,0,11.144,6.043,17.939
		c0.942,0.944,3.021,3.021,6.043,4.532c1.888,0.942,5.664,2.455,11.33,2.455c9.063,0,14.164-3.588,16.808-6.42
		c6.42-6.421,6.42-14.73,6.42-17.752C906.014,492.76,905.259,489.549,904.504,487.469z"/>
</g>
<g enable-background="new    ">
	<path fill="#CBD4DD" d="M993.073,548.277v-48.155c0-7.362,0-10.95-0.941-14.54c-2.646-10.951-11.145-12.464-15.676-12.464
		c-2.455,0-7.177,0.378-11.896,4.345c-6.798,5.665-8.875,13.597-8.875,29.838v40.979h-22.852v-94.422h22.852V465
		c0.378-0.564,2.266-3.021,4.154-4.908c8.876-8.312,21.717-9.064,24.928-9.064c13.975,0,22.094,7.176,25.115,11.521
		c6.043,8.687,5.477,20.584,5.477,30.215v55.52h-22.284L993.073,548.277L993.073,548.277z"/>
</g>
<g enable-background="new    ">
	<path fill="#FFFFFF" d="M1118.656,548.844c-13.786,0-18.884-3.399-24.358-7.556c-5.666,3.777-15.107,9.82-31.915,9.82
		c-4.154,0-18.509-0.378-29.46-9.254c-8.311-6.987-12.842-17.751-12.842-28.326c0-2.267,0.188-7.365,2.454-13.408
		c4.91-12.841,15.675-19.262,26.438-26.249c-2.268-3.588-5.666-9.439-5.666-19.64c0-3.776,0.378-13.407,7.742-21.528
		c5.854-6.607,14.353-9.439,23.039-9.439c6.607,0,10.765,1.511,13.219,2.455c10.197,4.343,17.563,14.352,17.563,25.871
		c0,8.876-5.098,23.416-25.115,30.401c2.646,5.101,6.609,10.01,9.819,14.919c2.455,3.588,4.722,7.178,7.554,10.389
		c6.232-8.876,6.422-16.432,6.987-20.962l21.717,0.188c-0.188,1.889-0.564,5.1-1.133,6.987c-0.944,3.966-5.099,19.071-14.163,30.402
		c4.154,4.345,6.986,5.854,13.219,5.854c0.758,0,2.455-0.188,4.154-0.378v18.885
		C1123.944,548.655,1122.619,548.844,1118.656,548.844z M1059.17,490.869c-1.135,0.566-3.777,2.077-6.609,4.154
		c-8.121,6.421-9.631,11.709-9.631,16.996c0,4.344,1.321,7.365,2.266,8.876c1.891,3.588,7.365,10.575,18.507,10.575
		c3.776,0,10.952-0.944,18.317-7.178L1059.17,490.869z M1074.655,441.014c-5.854,0-10.197,4.154-10.008,10.009
		c0,3.776,1.321,7.742,5.665,14.163l3.399-1.133c1.889-0.566,11.33-3.966,11.33-13.03
		C1085.041,444.98,1080.509,441.014,1074.655,441.014z"/>
</g>
<g enable-background="new    ">
	<path fill="#CBD4DD" d="M1200.805,545.635c-8.309,4.721-16.051,5.477-19.639,5.477c-4.91,0-12.844-0.942-21.719-8.498
		c-1.512-1.321-2.834-2.644-4.154-4.155v9.82h-22.473V414.954h22.473l0.188,46.833c0.945-0.942,2.078-1.889,3.021-2.644
		c9.442-7.176,19.828-8.12,23.982-8.12c5.665,0,17.187,1.511,27.382,11.896c5.666,5.854,14.164,17.752,14.164,37.58
		C1224.031,518.253,1216.858,536.569,1200.805,545.635z M1195.707,481.238c-4.155-6.043-11.145-9.631-18.51-9.631
		c-5.854,0-10.764,2.077-14.729,6.231c-7.557,7.741-7.365,18.507-7.365,21.526c0,9.253,1.699,19.642,9.631,25.685
		c1.891,1.319,6.609,4.53,13.408,4.53c3.588,0,11.896-1.133,17.184-9.44c4.91-7.555,5.479-17.94,5.479-20.02
		C1200.992,497.67,1200.805,488.414,1195.707,481.238z"/>
</g>
<g enable-background="new    ">
	<path fill="#CBD4DD" d="M1291.641,548.277l-0.189-9.631c-4.721,4.344-13.974,11.896-30.401,11.896
		c-15.674,0-23.417-6.8-27.193-12.465c-6.043-8.876-5.477-19.64-5.477-29.838v-54.387h22.851v50.988
		c0,7.74-0.378,16.996,7.553,21.525c3.021,1.891,7.365,2.833,10.953,2.833c10.953,0,16.432-7.176,18.318-10.575
		c3.774-7.176,3.588-17.371,3.588-24.736v-40.035h22.661v94.422L1291.641,548.277L1291.641,548.277z"/>
</g>
<g enable-background="new    ">
	<path fill="#CBD4DD" d="M1320.156,439.128v-22.852h22.474v22.852H1320.156z M1320.156,548.277v-94.422h22.474v94.422H1320.156z"/>
</g>
<g enable-background="new    ">
	<path fill="#CBD4DD" d="M1347.162,548.277V414.954h23.038v133.323H1347.162z"/>
</g>
<g enable-background="new    ">
	<path fill="#CBD4DD" d="M1441.963,548.277v-9.063c-0.943,0.942-1.699,2.075-2.646,3.021c-3.588,3.399-11.331,8.876-23.604,8.876
		c-3.212,0-10.012-0.378-17.563-3.966c-10.198-4.722-24.359-16.996-24.359-44.189c0-28.893,15.674-43.812,26.438-48.722
		c3.021-1.321,8.498-3.21,16.43-3.21c3.211,0,10.011,0.188,17.188,4.154c1.321,0.756,2.454,1.32,4.721,3.021
		c1.699,1.322,3.021,3.021,3.398,3.399v-46.646h22.473v133.323h-22.474L1441.963,548.277L1441.963,548.277z M1437.617,481.993
		c-1.133-2.077-3.209-4.53-4.908-5.854c-3.775-3.021-7.932-4.155-12.651-4.155c-1.89,0-6.798,0.378-11.521,3.399
		c-10.765,6.985-11.142,22.284-11.142,25.114c0,13.977,5.854,30.026,22.473,30.026c6.043,0,10.766-1.889,14.729-6.421
		c5.854-6.421,7.365-14.163,7.177-22.661C1441.775,495.401,1440.828,487.659,1437.617,481.993z"/>
</g>
<g enable-background="new    ">
	<path fill="#FFFFFF" d="M523.176,613.324v-14.822h2.792v12.305h5.879v2.52L523.176,613.324L523.176,613.324z"/>
	<path fill="#FFFFFF" d="M543.502,610.385c-0.42,1.068-1.785,3.254-4.913,3.254c-0.441,0-1.346-0.021-2.373-0.482
		c-1.094-0.48-3.086-1.953-3.086-5.123c0-1.134,0.313-1.974,0.462-2.352c0.439-1.05,1.785-3.17,4.913-3.17
		c0.397,0,1.321,0.041,2.31,0.48c1.134,0.482,3.086,1.892,3.107,5.039C543.922,608.411,543.901,609.398,543.502,610.385z
		 M538.463,604.779c-0.231,0-0.861,0.041-1.43,0.398c-0.546,0.355-1.279,1.218-1.279,2.793c0,0.504,0.042,0.942,0.21,1.428
		c0.168,0.504,0.901,1.932,2.625,1.932c1.911,0,2.771-1.68,2.708-3.339C541.255,606.353,540.31,604.779,538.463,604.779z"/>
	<path fill="#FFFFFF" d="M555.742,610.385c-0.42,1.068-1.783,3.254-4.913,3.254c-0.439,0-1.344-0.021-2.373-0.482
		c-1.092-0.48-3.086-1.953-3.086-5.123c0-1.134,0.315-1.974,0.464-2.352c0.439-1.05,1.783-3.17,4.911-3.17
		c0.399,0,1.323,0.041,2.312,0.48c1.134,0.482,3.086,1.892,3.105,5.039C556.162,608.411,556.143,609.398,555.742,610.385z
		 M550.703,604.779c-0.229,0-0.859,0.041-1.428,0.398c-0.546,0.355-1.281,1.218-1.281,2.793c0,0.504,0.042,0.942,0.21,1.428
		c0.169,0.504,0.903,1.932,2.625,1.932c1.911,0,2.771-1.68,2.709-3.339C553.496,606.353,552.553,604.779,550.703,604.779z"/>
	<path fill="#FFFFFF" d="M565.363,613.324l-3.17-4.703l-1.47,1.449v3.254h-2.499v-14.822h2.499v8.336l4.094-4.012h3.212l-4.01,4.012
		l4.409,6.486H565.363z"/>
	<path fill="#FFFFFF" d="M584.701,613.324l-0.859-2.896h-5.564l-0.861,2.896h-2.979l5.018-14.822h3.149l5.06,14.822H584.701z
		 M581.071,601.17l-2.058,6.821h4.094L581.071,601.17z"/>
	<path fill="#FFFFFF" d="M591.844,607.109c-0.189,0.588-0.189,1.113-0.189,1.722v4.493h-2.436v-10.498h2.436v1.49
		c0.168-0.314,0.378-0.629,0.63-0.86c0.841-0.817,2.205-0.858,2.499-0.858h0.21v2.582
		C594.469,605.177,592.451,605.177,591.844,607.109z"/>
	<path fill="#FFFFFF" d="M606.416,610.385c-0.421,1.068-1.784,3.254-4.912,3.254c-0.441,0-1.346-0.021-2.373-0.482
		c-1.094-0.48-3.086-1.953-3.086-5.123c0-1.134,0.313-1.974,0.462-2.352c0.439-1.05,1.784-3.17,4.913-3.17
		c0.397,0,1.321,0.041,2.31,0.48c1.134,0.482,3.086,1.892,3.107,5.039C606.837,608.411,606.816,609.398,606.416,610.385z
		 M601.378,604.779c-0.231,0-0.861,0.041-1.43,0.398c-0.546,0.355-1.28,1.218-1.28,2.793c0,0.504,0.043,0.942,0.211,1.428
		c0.168,0.504,0.901,1.932,2.625,1.932c1.909,0,2.771-1.68,2.708-3.339C604.17,606.353,603.225,604.779,601.378,604.779z"/>
	<path fill="#FFFFFF" d="M615.888,613.324l-0.021-1.068c-0.523,0.48-1.554,1.32-3.38,1.32c-1.743,0-2.604-0.756-3.021-1.386
		c-0.673-0.987-0.609-2.184-0.609-3.317v-6.047h2.541v5.669c0,0.86-0.042,1.892,0.84,2.396c0.336,0.21,0.819,0.313,1.219,0.313
		c1.219,0,1.826-0.797,2.036-1.176c0.42-0.797,0.399-1.932,0.399-2.75v-4.451h2.52v10.498H615.888z"/>
	<path fill="#FFFFFF" d="M627.816,613.324v-5.354c0-0.819,0-1.219-0.104-1.617c-0.296-1.218-1.239-1.386-1.743-1.386
		c-0.273,0-0.798,0.042-1.323,0.481c-0.756,0.629-0.987,1.514-0.987,3.316v4.557h-2.541v-10.498h2.541v1.238
		c0.042-0.063,0.252-0.336,0.462-0.545c0.987-0.924,2.415-1.008,2.771-1.008c1.554,0,2.457,0.797,2.792,1.278
		c0.672,0.968,0.607,2.288,0.607,3.359v6.173h-2.476V613.324L627.816,613.324z"/>
	<path fill="#FFFFFF" d="M639.933,613.324v-1.008c-0.105,0.105-0.189,0.23-0.294,0.336c-0.399,0.378-1.26,0.986-2.625,0.986
		c-0.357,0-1.113-0.041-1.953-0.44c-1.134-0.522-2.708-1.89-2.708-4.913c0-3.213,1.743-4.871,2.938-5.417
		c0.337-0.146,0.945-0.354,1.827-0.354c0.357,0,1.113,0.021,1.911,0.461c0.147,0.084,0.273,0.146,0.525,0.336
		c0.188,0.146,0.336,0.336,0.378,0.379v-5.187h2.499v14.821H639.933L639.933,613.324z M639.448,605.955
		c-0.126-0.229-0.355-0.504-0.546-0.649c-0.42-0.336-0.882-0.462-1.407-0.462c-0.21,0-0.756,0.042-1.279,0.378
		c-1.197,0.774-1.239,2.478-1.239,2.792c0,1.555,0.65,3.339,2.499,3.339c0.672,0,1.197-0.21,1.638-0.714
		c0.651-0.714,0.819-1.574,0.798-2.521C639.91,607.445,639.807,606.584,639.448,605.955z"/>
	<path fill="#FFFFFF" d="M644.615,613.324v-2.877h2.771v2.877H644.615z"/>
</g>
<g enable-background="new    ">
	<path fill="#FFFFFF" d="M764.092,613.324v-14.822h10.54v2.479h-7.813v3.485h7.16v2.394h-7.16v3.969h8.335v2.498L764.092,613.324
		L764.092,613.324z"/>
	<path fill="#FFFFFF" d="M783.053,613.324l-2.186-3.315l-2.1,3.315h-3.002l3.611-5.627l-3.191-4.871h2.96l1.722,2.646l1.659-2.646
		h3.002l-3.17,4.871l3.59,5.627H783.053z"/>
	<path fill="#FFFFFF" d="M796.533,611.707c-1.237,1.743-2.938,1.934-3.735,1.934c-0.63,0-1.724-0.125-2.855-1.176v4.281h-2.52
		v-13.92h2.52v0.945c0.42-0.441,1.281-1.26,2.876-1.26c0.672,0,2.163,0.125,3.359,1.53c0.546,0.651,1.406,2.018,1.406,4.115
		C797.585,608.726,797.543,610.302,796.533,611.707z M794.813,606.689c-0.357-1.029-1.281-1.764-2.394-1.764
		c-0.651,0-1.094,0.252-1.304,0.378c-0.546,0.378-1.176,1.155-1.218,2.708c0,0.42,0.042,0.84,0.147,1.239
		c0.313,1.176,1.176,1.993,2.436,1.993c0.441,0,0.924-0.127,1.302-0.379c0.609-0.396,1.22-1.236,1.22-2.834
		C795.002,607.844,795.002,607.258,794.813,606.689z"/>
	<path fill="#FFFFFF" d="M808.589,612.064c-0.589,0.546-1.995,1.574-4.157,1.574c-0.672,0-2.331-0.084-3.758-1.406
		c-1.197-1.134-1.64-2.582-1.64-4.221c0-0.881,0.126-1.723,0.462-2.521c0.463-1.049,1.766-2.979,4.81-2.979
		c2.352,0,3.59,1.217,4.136,2.016c0.483,0.734,0.966,2.016,1.029,4.052H801.7c0.042,0.315,0.147,0.968,0.672,1.598
		c0.357,0.438,0.987,1.008,2.289,1.008c1.304,0,2.06-0.608,2.396-0.966c0.084-0.084,0.21-0.252,0.355-0.482l2.144,1.238
		C809.386,611.203,809.093,611.602,808.589,612.064z M806.489,605.871c-0.229-0.504-0.775-1.344-2.142-1.344
		c-0.546,0-0.84,0.104-1.05,0.188c-1.178,0.481-1.449,1.657-1.514,2.016h4.913C806.698,606.731,806.636,606.227,806.489,605.871z"/>
	<path fill="#FFFFFF" d="M814.092,607.109c-0.189,0.588-0.189,1.113-0.189,1.722v4.493h-2.436v-10.498h2.436v1.49
		c0.168-0.314,0.378-0.629,0.63-0.86c0.84-0.817,2.205-0.858,2.499-0.858h0.21v2.582
		C816.717,605.177,814.699,605.177,814.092,607.109z"/>
	<path fill="#FFFFFF" d="M818.922,601.188v-2.54h2.499v2.54H818.922z M818.922,613.324v-10.498h2.499v10.498H818.922z"/>
	<path fill="#FFFFFF" d="M833.073,612.064c-0.588,0.546-1.995,1.574-4.156,1.574c-0.673,0-2.33-0.084-3.759-1.406
		c-1.196-1.134-1.638-2.582-1.638-4.221c0-0.881,0.126-1.723,0.462-2.521c0.462-1.049,1.764-2.979,4.81-2.979
		c2.352,0,3.59,1.217,4.136,2.016c0.481,0.734,0.966,2.016,1.028,4.052h-7.77c0.042,0.315,0.146,0.968,0.672,1.598
		c0.357,0.438,0.987,1.008,2.289,1.008s2.059-0.608,2.395-0.966c0.084-0.084,0.211-0.252,0.356-0.482l2.144,1.238
		C833.87,611.203,833.576,611.602,833.073,612.064z M830.975,605.871c-0.231-0.504-0.777-1.344-2.143-1.344
		c-0.547,0-0.841,0.104-1.051,0.188c-1.176,0.481-1.447,1.657-1.512,2.016h4.913C831.185,606.731,831.12,606.227,830.975,605.871z"
		/>
	<path fill="#FFFFFF" d="M842.63,613.324v-5.354c0-0.819,0-1.219-0.105-1.617c-0.294-1.218-1.239-1.386-1.743-1.386
		c-0.271,0-0.798,0.042-1.322,0.481c-0.756,0.629-0.986,1.514-0.986,3.316v4.557h-2.541v-10.498h2.541v1.238
		c0.042-0.063,0.252-0.336,0.462-0.545c0.987-0.924,2.415-1.008,2.771-1.008c1.555,0,2.456,0.797,2.791,1.278
		c0.672,0.968,0.609,2.288,0.609,3.359v6.173h-2.476V613.324z"/>
	<path fill="#FFFFFF" d="M856.175,611.644c-0.945,1.281-2.499,1.994-4.073,1.994c-0.378,0-1.239-0.063-2.184-0.482
		c-2.793-1.281-3.002-4.199-3.002-5.081c0-1.278,0.355-2.52,1.134-3.525c0.504-0.672,1.827-2.036,4.178-2.036
		c0.672,0,1.344,0.125,1.953,0.377c0.607,0.252,1.869,0.987,2.562,2.604l-2.247,1.053c-0.168-0.567-0.481-0.926-0.63-1.071
		c-0.294-0.294-0.798-0.714-1.764-0.714c-0.735,0-1.323,0.252-1.807,0.816c-0.776,0.903-0.776,2.079-0.776,2.438
		c0,0.547,0.084,0.945,0.146,1.155c0.315,1.218,1.178,2.12,2.499,2.12c1.808,0,2.354-1.598,2.541-2.059l2.144,1.133
		C856.678,610.804,856.469,611.246,856.175,611.644z"/>
</g>
<g enable-background="new    ">
	<path fill="#FFFFFF" d="M867.755,612.064c-0.589,0.546-1.995,1.574-4.157,1.574c-0.672,0-2.331-0.084-3.758-1.406
		c-1.197-1.134-1.64-2.582-1.64-4.221c0-0.881,0.126-1.723,0.464-2.521c0.461-1.049,1.764-2.979,4.808-2.979
		c2.352,0,3.59,1.217,4.136,2.016c0.483,0.734,0.966,2.016,1.029,4.052h-7.771c0.042,0.315,0.147,0.968,0.673,1.598
		c0.356,0.438,0.986,1.008,2.288,1.008c1.304,0,2.06-0.608,2.396-0.966c0.084-0.084,0.21-0.252,0.355-0.482l2.144,1.238
		C868.552,611.203,868.259,611.602,867.755,612.064z M865.655,605.871c-0.229-0.504-0.775-1.344-2.142-1.344
		c-0.546,0-0.84,0.104-1.05,0.188c-1.178,0.481-1.449,1.657-1.514,2.016h4.913C865.865,606.731,865.802,606.227,865.655,605.871z"/>
</g>
<g enable-background="new    ">
	<path fill="#FFFFFF" d="M870.487,613.324v-2.877h2.771v2.877H870.487z"/>
</g>
<g enable-background="new    ">
	<path fill="#FFFFFF" d="M1013.322,613.324l-2.919-5.501h-2.498v5.501h-2.75v-14.822h6.067c0.672,0,2.667,0.063,3.989,1.807
		c0.859,1.134,0.9,2.414,0.9,2.896c0,0.231-0.021,0.968-0.271,1.659c-0.231,0.608-0.944,1.889-2.646,2.414l3.297,6.047H1013.322z
		 M1012.377,601.338c-0.483-0.315-1.053-0.441-2.229-0.441h-2.246v4.619h0.986c1.617,0,2.625,0,3.297-0.357
		c0.42-0.229,1.113-0.774,1.113-1.973C1013.301,602.804,1013.258,601.926,1012.377,601.338z"/>
	<path fill="#FFFFFF" d="M1027.284,612.064c-0.588,0.546-1.993,1.574-4.155,1.574c-0.672,0-2.33-0.084-3.758-1.406
		c-1.197-1.134-1.641-2.582-1.641-4.221c0-0.881,0.127-1.723,0.463-2.521c0.461-1.049,1.766-2.979,4.81-2.979
		c2.352,0,3.591,1.217,4.136,2.016c0.482,0.734,0.967,2.016,1.029,4.052h-7.771c0.042,0.315,0.147,0.968,0.672,1.598
		c0.356,0.438,0.987,1.008,2.288,1.008c1.305,0,2.061-0.608,2.396-0.966c0.084-0.084,0.209-0.252,0.354-0.482l2.144,1.238
		C1028.084,611.203,1027.788,611.602,1027.284,612.064z M1025.187,605.871c-0.231-0.504-0.776-1.344-2.142-1.344
		c-0.547,0-0.842,0.104-1.052,0.188c-1.176,0.481-1.446,1.657-1.512,2.016h4.913
		C1025.397,606.731,1025.334,606.227,1025.187,605.871z"/>
	<path fill="#FFFFFF" d="M1032.998,604.611v8.713h-2.521v-8.713h-1.575v-1.785h1.575v-1.218c0-0.042-0.021-0.756,0.063-1.218
		c0.209-1.218,1.069-1.91,3.315-1.91c0.483,0,0.945,0.041,1.428,0.104v2.142c-0.063-0.021-0.48-0.063-0.797-0.063
		c-1.532,0-1.489,0.881-1.489,1.553v0.607h2.286v1.785L1032.998,604.611L1032.998,604.611z"/>
	<path fill="#FFFFFF" d="M1036.758,613.324v-14.822h2.563v14.822H1036.758z"/>
	<path fill="#FFFFFF" d="M1050.908,612.064c-0.588,0.546-1.992,1.574-4.154,1.574c-0.672,0-2.331-0.084-3.761-1.406
		c-1.194-1.134-1.638-2.582-1.638-4.221c0-0.881,0.126-1.723,0.462-2.521c0.462-1.049,1.766-2.979,4.81-2.979
		c2.352,0,3.591,1.217,4.137,2.016c0.482,0.734,0.966,2.016,1.029,4.052h-7.771c0.043,0.315,0.147,0.968,0.672,1.598
		c0.357,0.438,0.987,1.008,2.289,1.008s2.059-0.608,2.396-0.966c0.084-0.084,0.21-0.252,0.354-0.482l2.145,1.238
		C1051.709,611.203,1051.412,611.602,1050.908,612.064z M1048.811,605.871c-0.23-0.504-0.776-1.344-2.141-1.344
		c-0.547,0-0.84,0.104-1.053,0.188c-1.176,0.481-1.446,1.657-1.512,2.016h4.914C1049.022,606.731,1048.957,606.227,1048.811,605.871
		z"/>
	<path fill="#FFFFFF" d="M1062.209,611.644c-0.945,1.281-2.498,1.994-4.073,1.994c-0.378,0-1.239-0.063-2.186-0.482
		c-2.792-1.281-3.003-4.199-3.003-5.081c0-1.278,0.357-2.52,1.136-3.525c0.505-0.672,1.825-2.036,4.179-2.036
		c0.672,0,1.344,0.125,1.953,0.377c0.606,0.252,1.866,0.987,2.561,2.604l-2.246,1.053c-0.168-0.567-0.48-0.926-0.63-1.071
		c-0.294-0.294-0.798-0.714-1.764-0.714c-0.735,0-1.323,0.252-1.808,0.816c-0.775,0.903-0.775,2.079-0.775,2.438
		c0,0.547,0.084,0.945,0.146,1.155c0.315,1.218,1.176,2.12,2.499,2.12c1.807,0,2.354-1.598,2.54-2.059l2.144,1.133
		C1062.713,610.804,1062.503,611.246,1062.209,611.644z"/>
	<path fill="#FFFFFF" d="M1067.88,613.408c-1.388,0-2.102-0.336-2.521-0.84c-0.21-0.252-0.294-0.504-0.313-0.609
		c-0.104-0.336-0.125-1.068-0.125-1.992v-5.354h-1.533v-1.785h1.533v-3.735h2.52v3.735h2.246v1.785h-2.246v4.767
		c0,0.421-0.063,1.219,0.252,1.555c0.293,0.336,0.902,0.313,0.965,0.313c0.357,0,0.715-0.043,1.029-0.127v2.121
		C1069.35,613.282,1068.74,613.408,1067.88,613.408z"/>
	<path fill="#FFFFFF" d="M1087.784,613.386c-1.53,0-2.1-0.377-2.708-0.84c-0.631,0.42-1.68,1.092-3.549,1.092
		c-0.462,0-2.058-0.041-3.273-1.028c-0.924-0.776-1.43-1.974-1.43-3.149c0-0.252,0.021-0.816,0.273-1.488
		c0.545-1.43,1.742-2.145,2.938-2.919c-0.252-0.399-0.631-1.052-0.631-2.186c0-0.42,0.043-1.491,0.861-2.394
		c0.65-0.734,1.596-1.05,2.562-1.05c0.735,0,1.196,0.168,1.472,0.271c1.134,0.483,1.951,1.596,1.951,2.877
		c0,0.986-0.565,2.604-2.793,3.381c0.296,0.566,0.734,1.112,1.094,1.658c0.271,0.398,0.523,0.798,0.84,1.154
		c0.691-0.986,0.714-1.826,0.775-2.33l2.414,0.021c-0.021,0.209-0.063,0.566-0.126,0.776c-0.104,0.44-0.565,2.12-1.573,3.38
		c0.463,0.483,0.775,0.651,1.471,0.651c0.084,0,0.271-0.021,0.461-0.042v2.1C1088.373,613.366,1088.227,613.386,1087.784,613.386z
		 M1081.172,606.941c-0.125,0.063-0.42,0.23-0.734,0.462c-0.902,0.714-1.07,1.302-1.07,1.89c0,0.482,0.146,0.818,0.252,0.986
		c0.209,0.399,0.818,1.176,2.059,1.176c0.42,0,1.219-0.104,2.037-0.797L1081.172,606.941z M1082.895,601.398
		c-0.651,0-1.135,0.462-1.113,1.113c0,0.42,0.146,0.858,0.63,1.574l0.378-0.128c0.212-0.063,1.262-0.438,1.262-1.446
		C1084.049,601.842,1083.545,601.398,1082.895,601.398z"/>
	<path fill="#FFFFFF" d="M1105.406,613.324l-2.919-5.501h-2.498v5.501h-2.75v-14.822h6.067c0.672,0,2.667,0.063,3.989,1.807
		c0.859,1.134,0.9,2.414,0.9,2.896c0,0.231-0.021,0.968-0.271,1.659c-0.231,0.608-0.944,1.889-2.646,2.414l3.297,6.047H1105.406z
		 M1104.461,601.338c-0.483-0.315-1.053-0.441-2.229-0.441h-2.246v4.619h0.986c1.617,0,2.625,0,3.297-0.357
		c0.42-0.229,1.113-0.774,1.113-1.973C1105.385,602.804,1105.342,601.926,1104.461,601.338z"/>
	<path fill="#FFFFFF" d="M1119.368,612.064c-0.588,0.546-1.993,1.574-4.155,1.574c-0.672,0-2.33-0.084-3.76-1.406
		c-1.195-1.134-1.639-2.582-1.639-4.221c0-0.881,0.127-1.723,0.463-2.521c0.461-1.049,1.766-2.979,4.809-2.979
		c2.353,0,3.592,1.217,4.137,2.016c0.481,0.734,0.967,2.016,1.029,4.052h-7.771c0.042,0.315,0.146,0.968,0.672,1.598
		c0.356,0.438,0.987,1.008,2.288,1.008c1.303,0,2.059-0.608,2.396-0.966c0.084-0.084,0.209-0.252,0.354-0.482l2.142,1.238
		C1120.168,611.203,1119.873,611.602,1119.368,612.064z M1117.271,605.871c-0.231-0.504-0.776-1.344-2.142-1.344
		c-0.547,0-0.84,0.104-1.052,0.188c-1.176,0.481-1.446,1.657-1.512,2.016h4.913C1117.481,606.731,1117.418,606.227,1117.271,605.871
		z"/>
	<path fill="#FFFFFF" d="M1128.422,613.324l-0.063-0.816c-0.399,0.336-0.756,0.504-0.966,0.588c-0.693,0.313-1.344,0.48-2.121,0.48
		c-0.504,0-2.393-0.063-3.359-1.617c-0.168-0.271-0.48-0.84-0.461-1.68c0-0.588,0.146-1.764,1.43-2.624
		c0.858-0.588,1.68-0.714,2.645-0.903c1.557-0.313,2.121-0.438,2.898-0.713c0-0.271-0.021-0.607-0.147-0.859
		c-0.21-0.398-0.733-0.714-1.659-0.714c-0.965,0-1.572,0.294-1.848,0.649c-0.293,0.356-0.272,0.776-0.272,0.924l-2.562-0.146
		c0.021-0.462,0.104-1.575,1.134-2.415c0.651-0.545,1.638-0.965,3.464-0.965c1.725,0,2.73,0.354,3.381,0.816
		c0.441,0.314,0.674,0.673,0.758,0.842c0.271,0.546,0.271,1.279,0.271,1.867v5.584c0,0.801,0.041,1.029,0.461,1.701H1128.422z
		 M1128.422,608.095c-0.42,0.211-0.969,0.42-1.995,0.588c-0.567,0.104-1.177,0.127-1.7,0.439c-0.357,0.23-0.609,0.59-0.609,1.052
		c0,0.63,0.463,1.237,1.724,1.237c1.386,0,2.204-0.715,2.436-1.195c0.168-0.336,0.147-0.631,0.147-0.967L1128.422,608.095
		L1128.422,608.095z"/>
	<path fill="#FFFFFF" d="M1142.05,611.644c-0.944,1.281-2.499,1.994-4.073,1.994c-0.378,0-1.238-0.063-2.184-0.482
		c-2.793-1.281-3.002-4.199-3.002-5.081c0-1.278,0.354-2.52,1.133-3.525c0.504-0.672,1.827-2.036,4.179-2.036
		c0.672,0,1.344,0.125,1.952,0.377c0.609,0.252,1.869,0.987,2.563,2.604l-2.245,1.053c-0.168-0.567-0.483-0.926-0.632-1.071
		c-0.293-0.294-0.798-0.714-1.764-0.714c-0.734,0-1.322,0.252-1.806,0.816c-0.776,0.903-0.776,2.079-0.776,2.438
		c0,0.547,0.084,0.945,0.146,1.155c0.313,1.218,1.176,2.12,2.498,2.12c1.807,0,2.352-1.598,2.541-2.059l2.142,1.133
		C1142.554,610.804,1142.344,611.246,1142.05,611.644z"/>
</g>
<g enable-background="new    ">
	<path fill="#FFFFFF" d="M1147.841,613.408c-1.388,0-2.102-0.336-2.521-0.84c-0.21-0.252-0.294-0.504-0.313-0.609
		c-0.104-0.336-0.125-1.068-0.125-1.992v-5.354h-1.533v-1.785h1.533v-3.735h2.52v3.735h2.246v1.785h-2.246v4.767
		c0,0.421-0.063,1.219,0.252,1.555c0.293,0.336,0.902,0.313,0.965,0.313c0.357,0,0.715-0.043,1.029-0.127v2.121
		C1149.311,613.282,1148.699,613.408,1147.841,613.408z"/>
</g>
<g enable-background="new    ">
	<path fill="#FFFFFF" d="M1152.367,613.324v-2.877h2.771v2.877H1152.367z"/>
</g>
<g enable-background="new    ">
	<path fill="#FFFFFF" d="M1252.225,607.445c-1.281,0.818-2.667,0.84-4.115,0.84h-2.163v5.039h-2.771v-14.821h4.997
		c0.355,0,0.714-0.021,1.068,0c0.651,0.042,2.521,0.168,3.845,1.722c1.069,1.238,1.11,2.625,1.11,3.213
		C1254.198,605.744,1253,606.941,1252.225,607.445z M1251.006,601.967c-0.629-1.094-1.868-1.094-2.939-1.094h-2.12v5.146h1.995
		c0.188,0,0.398-0.021,0.588-0.021c1.428-0.063,2.059-0.505,2.414-1.093c0.146-0.252,0.398-0.797,0.398-1.553
		C1251.342,602.888,1251.238,602.385,1251.006,601.967z"/>
	<path fill="#FFFFFF" d="M1255.944,613.324v-14.822h2.563v14.822H1255.944z"/>
	<path fill="#FFFFFF" d="M1267.345,613.324l-0.063-0.816c-0.396,0.336-0.756,0.504-0.965,0.588c-0.693,0.313-1.344,0.48-2.121,0.48
		c-0.504,0-2.394-0.063-3.357-1.617c-0.168-0.271-0.482-0.84-0.463-1.68c0-0.588,0.146-1.764,1.429-2.624
		c0.858-0.588,1.68-0.714,2.646-0.903c1.555-0.313,2.121-0.438,2.897-0.713c0-0.271-0.021-0.607-0.147-0.859
		c-0.209-0.398-0.732-0.714-1.656-0.714c-0.968,0-1.574,0.294-1.85,0.649c-0.294,0.356-0.271,0.776-0.271,0.924l-2.563-0.146
		c0.021-0.462,0.104-1.575,1.133-2.415c0.651-0.545,1.641-0.965,3.467-0.965c1.722,0,2.729,0.354,3.381,0.816
		c0.438,0.314,0.672,0.673,0.756,0.842c0.271,0.546,0.271,1.279,0.271,1.867v5.584c0,0.801,0.042,1.029,0.462,1.701H1267.345z
		 M1267.345,608.095c-0.42,0.211-0.966,0.42-1.995,0.588c-0.566,0.104-1.176,0.127-1.7,0.439c-0.354,0.23-0.608,0.59-0.608,1.052
		c0,0.63,0.463,1.237,1.723,1.237c1.387,0,2.205-0.715,2.436-1.195c0.168-0.336,0.147-0.631,0.147-0.967L1267.345,608.095
		L1267.345,608.095z"/>
	<path fill="#FFFFFF" d="M1278.41,611.98c-0.379,1.302-0.924,3.527-1.91,4.325c-0.65,0.522-1.322,0.63-2.143,0.63
		c-0.798,0-1.092-0.063-1.49-0.146v-2.184c1.01,0.125,1.574,0,1.952-0.315c0.315-0.294,0.399-0.606,0.44-0.756l-3.801-10.708h2.707
		l2.354,7.832l1.975-7.832h2.582L1278.41,611.98z"/>
	<path fill="#FFFFFF" d="M1299.18,613.386c-1.533,0-2.1-0.377-2.709-0.84c-0.63,0.42-1.68,1.092-3.549,1.092
		c-0.461,0-2.059-0.041-3.275-1.028c-0.924-0.776-1.428-1.974-1.428-3.149c0-0.252,0.021-0.816,0.271-1.488
		c0.547-1.43,1.742-2.145,2.939-2.919c-0.252-0.399-0.63-1.052-0.63-2.186c0-0.42,0.042-1.491,0.858-2.394
		c0.651-0.734,1.598-1.05,2.563-1.05c0.733,0,1.196,0.168,1.469,0.271c1.135,0.483,1.953,1.596,1.953,2.877
		c0,0.986-0.566,2.604-2.793,3.381c0.295,0.566,0.735,1.112,1.092,1.658c0.273,0.398,0.525,0.798,0.84,1.154
		c0.693-0.986,0.716-1.826,0.777-2.33l2.414,0.021c-0.021,0.209-0.063,0.566-0.125,0.776c-0.105,0.44-0.567,2.12-1.575,3.38
		c0.462,0.483,0.776,0.651,1.47,0.651c0.084,0,0.273-0.021,0.462-0.042v2.1C1299.768,613.366,1299.618,613.386,1299.18,613.386z
		 M1292.566,606.941c-0.126,0.063-0.42,0.23-0.735,0.462c-0.9,0.714-1.068,1.302-1.068,1.89c0,0.482,0.146,0.818,0.252,0.986
		c0.21,0.399,0.816,1.176,2.058,1.176c0.42,0,1.22-0.104,2.036-0.797L1292.566,606.941z M1294.285,601.398
		c-0.648,0-1.134,0.462-1.111,1.113c0,0.42,0.146,0.858,0.631,1.574l0.377-0.128c0.211-0.063,1.26-0.438,1.26-1.446
		C1295.442,601.842,1294.938,601.398,1294.285,601.398z"/>
	<path fill="#FFFFFF" d="M1319.927,611.182c-0.692,0.882-2.312,2.52-5.291,2.52c-0.504,0-1.7-0.042-2.981-0.63
		c-1.68-0.798-3.947-2.813-3.947-7.201c0-0.799,0-2.919,1.365-4.869c0.713-1.029,2.414-2.879,5.668-2.879
		c2.835,0,4.326,1.406,4.998,2.354c0.482,0.714,0.776,1.449,1.028,2.226l-2.751,0.716c-0.021-0.189-0.104-0.674-0.377-1.178
		c-0.567-1.05-1.68-1.596-2.855-1.572c-0.84,0-1.428,0.252-1.723,0.396c-1.092,0.546-2.352,1.975-2.352,4.745
		c0,0.42,0.021,2.184,0.883,3.507c0.293,0.44,0.648,0.818,1.068,1.092c0.883,0.608,1.766,0.672,2.162,0.672
		c1.155,0,2.018-0.463,2.73-1.344c0.293-0.355,0.522-0.799,0.588-0.902c0.084-0.188,0.146-0.355,0.271-0.734l2.624,1.092
		C1320.725,609.943,1320.431,610.531,1319.927,611.182z"/>
	<path fill="#FFFFFF" d="M1325.346,607.109c-0.188,0.588-0.188,1.113-0.188,1.722v4.493h-2.436v-10.498h2.436v1.49
		c0.168-0.314,0.378-0.629,0.63-0.86c0.84-0.817,2.205-0.858,2.498-0.858h0.211v2.582
		C1327.971,605.177,1325.953,605.177,1325.346,607.109z"/>
	<path fill="#FFFFFF" d="M1339.077,612.064c-0.588,0.546-1.993,1.574-4.155,1.574c-0.672,0-2.33-0.084-3.76-1.406
		c-1.195-1.134-1.639-2.582-1.639-4.221c0-0.881,0.127-1.723,0.463-2.521c0.461-1.049,1.766-2.979,4.809-2.979
		c2.353,0,3.592,1.217,4.137,2.016c0.481,0.734,0.967,2.016,1.029,4.052h-7.771c0.042,0.315,0.146,0.968,0.672,1.598
		c0.356,0.438,0.987,1.008,2.288,1.008c1.303,0,2.059-0.608,2.396-0.966c0.084-0.084,0.209-0.252,0.354-0.482l2.142,1.238
		C1339.877,611.203,1339.582,611.602,1339.077,612.064z M1336.98,605.871c-0.231-0.504-0.776-1.344-2.142-1.344
		c-0.547,0-0.84,0.104-1.052,0.188c-1.176,0.481-1.446,1.657-1.512,2.016h4.913C1337.19,606.731,1337.127,606.227,1336.98,605.871z"
		/>
	<path fill="#FFFFFF" d="M1348.131,613.324l-0.063-0.816c-0.399,0.336-0.756,0.504-0.966,0.588c-0.693,0.313-1.344,0.48-2.121,0.48
		c-0.504,0-2.393-0.063-3.359-1.617c-0.168-0.271-0.48-0.84-0.461-1.68c0-0.588,0.146-1.764,1.43-2.624
		c0.858-0.588,1.68-0.714,2.645-0.903c1.557-0.313,2.121-0.438,2.898-0.713c0-0.271-0.021-0.607-0.147-0.859
		c-0.21-0.398-0.733-0.714-1.659-0.714c-0.965,0-1.572,0.294-1.848,0.649c-0.293,0.356-0.272,0.776-0.272,0.924l-2.562-0.146
		c0.021-0.462,0.104-1.575,1.134-2.415c0.651-0.545,1.638-0.965,3.464-0.965c1.725,0,2.73,0.354,3.381,0.816
		c0.441,0.314,0.674,0.673,0.758,0.842c0.271,0.546,0.271,1.279,0.271,1.867v5.584c0,0.801,0.041,1.029,0.461,1.701H1348.131z
		 M1348.131,608.095c-0.42,0.211-0.969,0.42-1.995,0.588c-0.567,0.104-1.177,0.127-1.7,0.439c-0.357,0.23-0.609,0.59-0.609,1.052
		c0,0.63,0.463,1.237,1.724,1.237c1.386,0,2.204-0.715,2.436-1.195c0.168-0.336,0.147-0.631,0.147-0.967L1348.131,608.095
		L1348.131,608.095z"/>
	<path fill="#FFFFFF" d="M1356.573,613.408c-1.385,0-2.1-0.336-2.52-0.84c-0.209-0.252-0.293-0.504-0.314-0.609
		c-0.104-0.336-0.126-1.068-0.126-1.992v-5.354h-1.532v-1.785h1.532v-3.735h2.521v3.735h2.247v1.785h-2.247v4.767
		c0,0.421-0.063,1.219,0.252,1.555c0.294,0.336,0.901,0.313,0.966,0.313c0.355,0,0.714-0.043,1.029-0.127v2.121
		C1358.043,613.282,1357.434,613.408,1356.573,613.408z"/>
</g>
<g enable-background="new    ">
	<path fill="#FFFFFF" d="M1368.796,612.064c-0.589,0.546-1.995,1.574-4.157,1.574c-0.672,0-2.33-0.084-3.758-1.406
		c-1.197-1.134-1.641-2.582-1.641-4.221c0-0.881,0.127-1.723,0.463-2.521c0.463-1.049,1.766-2.979,4.81-2.979
		c2.352,0,3.591,1.217,4.136,2.016c0.483,0.734,0.967,2.016,1.029,4.052h-7.771c0.042,0.315,0.147,0.968,0.672,1.598
		c0.356,0.438,0.987,1.008,2.288,1.008c1.305,0,2.061-0.608,2.396-0.966c0.084-0.084,0.209-0.252,0.354-0.482l2.144,1.238
		C1369.594,611.203,1369.3,611.602,1368.796,612.064z M1366.697,605.871c-0.229-0.504-0.774-1.344-2.142-1.344
		c-0.546,0-0.84,0.104-1.05,0.188c-1.178,0.481-1.448,1.657-1.514,2.016h4.913C1366.906,606.731,1366.844,606.227,1366.697,605.871z
		"/>
</g>
<g enable-background="new    ">
	<path fill="#FFFFFF" d="M1371.444,613.324v-2.877h2.771v2.877H1371.444z"/>
</g>
</svg>
